<svg width="32" height="32" viewBox="0 0 32 32" fill="none" xmlns="http://www.w3.org/2000/svg">
    <path d="M0 16V16C0 24.8366 7.16345 32 16 32V32V32C24.8366 32 32 24.8366 32 16V16V16C32 7.16344 24.8366 -7.64336e-06 16 -7.64336e-06V-7.64336e-06V-7.64336e-06C7.16345 -7.64336e-06 0 7.16344 0 16V16ZM16.0829 4.30424C16.2951 4.7287 16.6433 5.06694 17.0081 5.20953V5.20953C17.1177 5.25338 17.1291 5.35636 17.0668 5.45666C17.0527 5.47946 17.0374 5.50349 17.0214 5.52787C16.7362 5.97554 16.4875 6.7117 16.3349 7.56062C16.1824 8.42611 16.1161 9.17554 16.0298 11.0093C16 11.656 15.9668 12.2462 15.9536 12.3192C15.9237 12.4883 15.9005 12.2064 15.8342 10.7275C15.7414 8.72787 15.6419 7.85906 15.3998 6.89077C15.2572 6.32372 15.0284 5.76663 14.7896 5.42176V5.42176C14.7401 5.35 14.7692 5.25083 14.8496 5.21718L14.8759 5.20621C15.2804 5.04041 15.6717 4.63585 15.8541 4.19481V4.19481C15.9006 4.07864 15.9701 4.08121 16.0264 4.19291C16.0438 4.22738 16.0629 4.26513 16.0829 4.30424ZM12.3358 4.89782C12.4618 5.02051 12.8033 5.20621 13.0553 5.2858C13.1482 5.31564 13.4433 5.39854 13.7119 5.4715C13.9838 5.54113 14.2226 5.62072 14.2458 5.64393C14.269 5.66714 14.342 5.823 14.405 5.98549C14.9488 7.40476 15.2672 9.60663 15.161 11.2713C15.1212 11.8781 15.0284 12.5612 14.9588 12.7337V12.7337C14.9517 12.7513 14.9256 12.7462 14.9256 12.7273V12.7171C14.9223 12.6607 14.9057 12.3722 14.8891 12.0705C14.793 10.492 14.6437 9.57678 14.3221 8.60518C14.0336 7.73637 13.6489 7.04331 13.0686 6.35025C12.7403 5.95896 12.4253 5.51461 12.3026 5.27253C12.1998 5.07025 12.1036 4.78176 12.1036 4.67896V4.67896C12.1036 4.65474 12.1355 4.6459 12.148 4.66667L12.1633 4.69222C12.1998 4.74528 12.2761 4.83813 12.3358 4.89782ZM19.7604 4.79502C19.651 5.23937 19.4255 5.60082 18.749 6.42321C17.6315 7.77948 17.1109 9.47398 16.9915 12.1401C16.9583 12.8564 16.9384 12.8995 16.8522 12.4352C16.7295 11.7753 16.703 11.3343 16.7229 10.3163C16.7395 9.30818 16.7992 8.70134 16.965 7.84911C17.1175 7.05657 17.353 6.24082 17.5619 5.77989C17.6282 5.63067 17.658 5.60414 17.7641 5.57429C17.8338 5.55771 18.0759 5.49471 18.3047 5.43502C19.0508 5.246 19.4686 5.03709 19.6709 4.75523C19.7273 4.67564 19.7803 4.61595 19.7869 4.62258C19.7936 4.62922 19.7803 4.70549 19.7604 4.79502ZM11.0591 6.0087C11.3011 6.2574 11.7024 6.5459 12.0473 6.71502C12.3324 6.85429 12.863 7.03005 12.999 7.03005C13.0454 7.03005 13.1283 7.23896 13.4234 8.13098C13.9374 9.67295 14.1098 10.4157 14.1762 11.3907C14.2027 11.7621 14.1463 12.3921 14.0502 12.7834V12.7834C14.0386 12.8328 13.9664 12.8265 13.9636 12.7759L13.954 12.601C13.891 11.4172 13.6555 10.4953 13.1681 9.52041C12.8597 8.90694 12.5911 8.49906 11.8251 7.47771C11.3443 6.8344 11.1022 6.46632 10.9795 6.1944C10.7938 5.77989 10.807 5.74673 11.0591 6.0087ZM20.9575 6.0717C20.8415 6.36352 20.6193 6.7117 20.0721 7.44455C19.4985 8.2172 19.0873 8.82735 18.8551 9.24849C18.2549 10.3395 17.9399 11.5134 17.9399 12.6607C17.9399 13.1117 17.9134 13.1482 17.8305 12.8C17.7244 12.3623 17.6978 12.0406 17.7177 11.4271C17.7509 10.4522 17.8968 9.80559 18.4506 8.14756L18.7145 7.36523C18.7795 7.17255 18.937 7.02543 19.1337 6.97367V6.97367C19.7239 6.82445 20.3142 6.48953 20.8116 6.02196C20.921 5.92248 21.0106 5.85284 21.0172 5.86942C21.0205 5.88269 20.994 5.97554 20.9575 6.0717ZM9.99793 7.53409C10.3594 7.71315 10.9098 7.88559 11.321 7.94528V7.94528C11.4223 7.96005 11.5125 8.0173 11.5689 8.10267L11.7455 8.36974C12.5712 9.62984 12.9459 10.9563 12.8862 12.3988C12.8663 12.9492 12.8232 13.1018 12.7867 12.7602C12.727 12.1766 12.4916 11.3277 12.2363 10.7871C11.908 10.0841 11.5731 9.64974 10.6213 8.68808C10.1969 8.26031 9.80228 7.84248 9.73928 7.75958C9.58011 7.55067 9.38446 7.23896 9.38446 7.19585C9.38446 7.17927 9.47068 7.21906 9.57679 7.29201C9.67959 7.36165 9.87192 7.47108 9.99793 7.53409ZM22.4531 7.28538C22.2906 7.60372 21.9921 7.95854 21.3521 8.59523C20.3142 9.63316 20.0522 9.96808 19.6808 10.7275C19.3857 11.3277 19.1768 12.0605 19.0806 12.8166C19.0574 13.0122 19.0541 13.0122 19.0276 12.8995C18.9745 12.674 18.9878 11.583 19.0508 11.1585C19.1967 10.1571 19.5482 9.26839 20.165 8.31999L20.2516 8.18821C20.3423 8.05021 20.4863 7.95619 20.6491 7.9287V7.9287C21.2361 7.82922 21.8462 7.60041 22.2342 7.33181C22.2877 7.29475 22.3384 7.26052 22.3806 7.23291C22.4535 7.18525 22.495 7.20912 22.4531 7.28538V7.28538ZM9.12581 8.70797C9.25182 8.73119 9.46736 8.79751 9.60663 8.85388C9.84539 8.94341 9.89513 8.97989 10.2168 9.30818C10.9165 10.0145 11.5399 10.8866 11.9544 11.7223C12.1368 12.0937 12.3125 12.5778 12.3523 12.8166C12.3722 12.936 12.3623 12.9227 12.2396 12.6872C11.583 11.4271 9.10922 9.18217 7.92539 8.77098C7.67005 8.68476 7.67005 8.67481 7.92539 8.6516C8.26031 8.62176 8.85389 8.64828 9.12581 8.70797ZM24.2006 8.6715C24.2039 8.67481 24.0978 8.71792 23.9652 8.76766C23.2953 9.00974 22.1811 9.8288 21.1764 10.8104C20.4071 11.5598 19.8964 12.1898 19.641 12.6939C19.515 12.9426 19.4985 12.9625 19.515 12.8497C19.6643 11.9677 20.5795 10.4323 21.5942 9.36787C22.0419 8.90031 22.3867 8.73119 23.0699 8.65823C23.2821 8.6317 24.1675 8.64497 24.2006 8.6715ZM11.7687 12.6541C12.1268 13.0586 12.2893 13.5428 12.2097 13.9838C12.1898 14.1098 12.1202 14.3784 12.0539 14.584L11.9948 14.7694C11.9724 14.8398 11.8762 14.8484 11.8417 14.783V14.783C11.7919 14.6868 11.6792 14.4879 11.593 14.342C11.5101 14.1961 11.4139 13.9938 11.384 13.8943C11.3177 13.6622 11.3409 13.3107 11.457 12.936C11.5034 12.7801 11.5399 12.611 11.5399 12.5612C11.5399 12.5115 11.5532 12.4684 11.5697 12.4684C11.5863 12.4684 11.6759 12.5513 11.7687 12.6541ZM20.5264 13.5693C20.5264 13.8578 20.4601 14.0767 20.2877 14.342C20.2313 14.4348 20.1285 14.6072 20.0622 14.7299V14.7299C20.0175 14.8131 19.8948 14.8018 19.866 14.7119L19.8135 14.5476C19.588 13.8446 19.6178 13.377 19.913 12.9127C19.976 12.8166 20.0887 12.674 20.165 12.601V12.601C20.2275 12.5415 20.3309 12.571 20.3526 12.6545L20.4137 12.8895C20.4933 13.188 20.5231 13.3903 20.5264 13.5693ZM16.0497 12.7071C16.1658 12.8332 16.2388 12.9724 16.2984 13.178C16.3946 13.503 16.3548 13.8048 16.1326 14.4912C16.101 14.5891 16.0706 14.6824 16.0435 14.7647C15.9726 14.9793 15.8659 14.9914 15.7712 14.7863V14.7863C15.496 14.1994 15.4197 13.6522 15.5523 13.2245C15.622 12.9956 15.8574 12.6342 15.9337 12.6342C15.9602 12.6342 16.0133 12.6674 16.0497 12.7071ZM13.4964 12.8995C13.7816 13.4632 13.7583 13.8645 13.4002 14.4879C13.1913 14.8593 13.1217 15.0682 13.1382 15.287L13.1413 15.3383C13.1434 15.3745 13.0976 15.3918 13.0752 15.3633V15.3633C12.9625 15.224 12.81 14.8957 12.7503 14.6736C12.6243 14.1894 12.7237 13.8014 13.1316 13.1813C13.2211 13.0421 13.314 12.8763 13.3372 12.8133C13.3571 12.7503 13.3803 12.7005 13.3869 12.7005C13.3903 12.7005 13.44 12.79 13.4964 12.8995ZM18.5501 12.8133C18.56 12.8564 18.6761 13.062 18.8021 13.2676C19.1038 13.7517 19.1801 13.9938 19.1602 14.3851C19.1436 14.7001 19.0607 14.9455 18.8651 15.2738V15.2738C18.8299 15.3318 18.741 15.3105 18.7359 15.2429L18.7324 15.1975C18.7159 14.9588 18.6926 14.9024 18.4738 14.4746C18.1223 13.7882 18.1024 13.5196 18.361 12.9592C18.4837 12.6972 18.5136 12.674 18.5501 12.8133ZM14.7731 13.9275C15.0383 14.909 15.0251 15.1378 14.6437 16.0133C14.5277 16.2819 14.4083 16.6068 14.3751 16.7395V16.7395C14.3549 16.8203 14.2447 16.8316 14.2086 16.7566L14.1364 16.6068C13.8379 15.9867 13.7816 15.7944 13.7816 15.3699C13.7816 14.7996 13.9241 14.3353 14.395 13.3471L14.4524 13.2259C14.488 13.1504 14.5995 13.1655 14.6139 13.2477V13.2477C14.6371 13.3936 14.7101 13.6986 14.7731 13.9275ZM17.7078 13.828C18.0858 14.6868 18.1919 15.3268 18.0361 15.8839C17.9996 16.0199 17.8769 16.325 17.7675 16.5571L17.6702 16.7579C17.6341 16.8324 17.5243 16.8202 17.5055 16.7395V16.7395C17.4723 16.6068 17.3563 16.2885 17.2435 16.0332C16.965 15.3932 16.9318 15.2671 16.9351 14.8725C16.9384 14.6271 16.9617 14.4613 17.0247 14.2259C17.1308 13.8346 17.2634 13.2908 17.2933 13.115V13.115C17.3005 13.0746 17.3553 13.0673 17.373 13.1043L17.4491 13.2642C17.5221 13.4201 17.6381 13.6721 17.7078 13.828ZM10.4987 14.1629C11.0359 14.5641 11.384 14.9919 11.5432 15.4429C11.6029 15.612 11.6095 15.6982 11.5996 16.1492C11.583 16.9849 11.5963 17.3132 11.6493 17.5254C11.6792 17.6315 11.6991 17.7243 11.6924 17.731C11.6759 17.7509 11.1254 17.3563 10.9596 17.2037C10.8634 17.1142 10.7374 16.9716 10.681 16.8854C10.4821 16.5737 10.4688 16.5074 10.4456 15.5523C10.4191 14.5641 10.3859 14.3917 10.1604 14.0568C10.0974 13.9606 10.0344 13.8678 10.0245 13.8479C9.9913 13.7981 10.1438 13.8976 10.4987 14.1629ZM21.7898 13.9507C21.5113 14.2989 21.4052 14.7631 21.435 15.5092C21.4682 16.3548 21.3853 16.6931 21.0537 17.0578C20.8746 17.2535 20.4369 17.5983 20.2379 17.7045V17.7045C20.2112 17.7178 20.1816 17.6921 20.1913 17.6637L20.218 17.5851C20.2645 17.4524 20.2744 17.27 20.2744 16.4974C20.2777 15.6087 20.281 15.5623 20.354 15.3832C20.5397 14.9256 20.921 14.4879 21.5146 14.0634C21.6904 13.9341 21.8495 13.828 21.8628 13.828C21.8761 13.828 21.8429 13.8843 21.7898 13.9507ZM12.7668 15.6584C13.0354 16.0133 13.2477 16.4145 13.3339 16.7295C13.4201 17.0479 13.4102 17.4657 13.3007 17.9863C13.2178 18.371 13.2112 18.7391 13.2808 18.9347V18.9347C13.3148 19.0367 13.271 19.0637 13.196 18.9867C13.0268 18.813 12.7285 18.4676 12.6077 18.2947C12.2794 17.8205 12.1268 17.3861 12.087 16.8091C12.0506 16.2918 12.1633 15.7049 12.3557 15.4097C12.4386 15.2837 12.4419 15.2837 12.5082 15.3434C12.5447 15.3766 12.6607 15.5192 12.7668 15.6584ZM19.5814 15.5258C19.7505 15.8707 19.8102 16.2288 19.7869 16.7461C19.7604 17.3463 19.6278 17.7641 19.326 18.2184C19.1735 18.4439 18.6064 19.1138 18.5832 19.0906C18.5766 19.0839 18.5932 18.9679 18.623 18.8319C18.6794 18.5633 18.6728 18.4937 18.5501 17.8139C18.5069 17.5718 18.4705 17.3032 18.4705 17.217C18.4738 16.829 18.6462 16.3449 18.938 15.9105C19.1138 15.6485 19.4023 15.287 19.4354 15.287C19.4487 15.287 19.515 15.3965 19.5814 15.5258ZM16.1161 15.675C16.3482 16.0232 16.6632 16.6765 16.7395 16.9683C16.8257 17.2866 16.8357 17.721 16.7594 18.0195C16.6864 18.3146 16.4477 18.7755 16.189 19.1171C16.0663 19.2796 15.9536 19.4155 15.937 19.4155C15.9204 19.4155 15.8044 19.273 15.6783 19.1005C14.9521 18.0957 14.8759 17.3762 15.3832 16.3449C15.549 16.0066 15.8972 15.4528 15.9436 15.4528C15.9569 15.4528 16.0365 15.5523 16.1161 15.675ZM14.2425 17.8139C14.279 17.8902 14.4348 18.1488 14.5874 18.3876C15.1942 19.3326 15.4131 19.7836 15.5225 20.3109C15.6153 20.7652 15.5988 21.3156 15.496 21.2725C15.3169 21.2062 14.7266 20.7619 14.4547 20.4933C14.1894 20.2313 14.1132 20.1285 13.9938 19.8864C13.8545 19.6079 13.8479 19.5813 13.8346 19.2332C13.8247 19.0276 13.8346 18.7789 13.8578 18.6595C13.9009 18.4207 14.1297 17.6746 14.1563 17.6746C14.1662 17.6746 14.206 17.7376 14.2425 17.8139ZM17.8537 18.0294C18.0129 18.5335 18.0526 18.7391 18.0526 19.1171C18.056 19.6642 17.8902 20.0356 17.4558 20.4734C17.2739 20.6572 16.9318 20.9229 16.6707 21.0991C16.4523 21.2465 16.3051 21.1481 16.3051 20.8846V20.8846C16.3018 20.1384 16.5273 19.5581 17.2203 18.5036C17.3463 18.3113 17.5088 18.046 17.5818 17.9134C17.6547 17.784 17.7177 17.6746 17.7244 17.6746C17.731 17.6746 17.7907 17.8338 17.8537 18.0294ZM11.4802 18.633C11.9876 18.7623 12.3656 19.0242 12.7005 19.4719C12.8298 19.6477 13.0388 20.0191 13.2841 20.5132C13.5892 21.1299 13.702 21.3223 13.8512 21.4848C14.0269 21.6804 14.0303 21.6904 13.9407 21.6705C13.0155 21.4682 12.4949 21.0769 11.7521 20.0257C11.5565 19.7471 11.3144 19.4354 11.2182 19.3293C10.8866 18.9712 10.5186 18.8054 10.0543 18.7988L9.95923 18.7975C9.92097 18.797 9.91005 18.7449 9.94487 18.7291V18.7291C10.3063 18.5633 11.0292 18.5169 11.4802 18.633ZM21.624 18.633C21.76 18.6694 21.9159 18.7159 21.9689 18.7391C22.0618 18.7789 22.0518 18.7822 21.77 18.8021C21.6075 18.8153 21.4151 18.8419 21.3455 18.8651C20.9608 18.9944 20.6558 19.2763 20.2114 19.9096C19.6344 20.7353 19.3426 21.0437 18.8684 21.3223C18.6661 21.445 18.1986 21.6174 17.9399 21.6705V21.6705C17.9051 21.6774 17.8825 21.6351 17.9075 21.61L17.983 21.5345C18.182 21.3322 18.2848 21.1598 18.6429 20.4203C18.9679 19.7505 19.1801 19.4255 19.4752 19.1436C19.7737 18.8584 20.1053 18.6827 20.5098 18.6031C20.7751 18.55 21.3654 18.5666 21.624 18.633ZM10.3461 21.0073C11.3177 23.3119 12.9724 25.033 14.5244 25.3546C14.5533 25.3603 14.5814 25.3659 14.6077 25.3714C14.7249 25.3957 14.7339 25.45 14.6238 25.4972V25.4972C13.9275 25.7956 12.7967 25.5536 11.8151 24.8904C11.3244 24.5588 11.0823 24.3532 10.0079 23.3418C8.66819 22.0817 7.92539 21.634 6.88415 21.4549L6.68488 21.4214C6.65277 21.416 6.65047 21.3707 6.68187 21.3621V21.3621C7.19586 21.2195 8.12435 21.2228 8.65492 21.3687C9.2485 21.5312 9.83213 21.8661 10.3063 22.3071C10.4357 22.4332 10.5418 22.526 10.5351 22.5161C10.24 22.0087 10.1107 21.4549 10.1637 20.9078V20.9078C10.1792 20.7456 10.2303 20.7417 10.2954 20.891C10.3113 20.9274 10.3284 20.9666 10.3461 21.0073ZM21.8429 21.256C21.8263 21.7169 21.7401 22.0385 21.5445 22.3834V22.3834C21.5264 22.4154 21.5676 22.4477 21.5943 22.4225L21.7103 22.3138C22.201 21.8462 22.7648 21.5246 23.3716 21.3654C23.8126 21.2493 24.5488 21.2228 25.0429 21.3057C25.4806 21.3787 25.5304 21.4052 25.2651 21.435C24.582 21.5113 23.8126 21.8429 23.1395 22.3536C22.7747 22.6288 22.526 22.8477 21.77 23.5573C21.0238 24.2603 20.616 24.6052 20.2114 24.8771C19.6145 25.2783 19.0707 25.5005 18.4605 25.5934C18.0493 25.6531 17.7343 25.6265 17.3928 25.4972C17.1971 25.4242 17.1971 25.4209 17.2933 25.3977C18.0294 25.2187 18.2516 25.1291 18.7258 24.8174C19.8964 24.0547 20.994 22.6321 21.6705 20.994C21.7832 20.7188 21.8031 20.6922 21.8296 20.7619C21.8462 20.805 21.8529 21.0271 21.8429 21.256ZM16.2984 21.6671C16.5637 21.7368 16.8091 21.8794 17.0081 22.0783C17.1772 22.2441 17.1872 22.264 17.1308 22.2972C16.7793 22.5028 16.5671 23.0367 16.4178 24.0912C16.3084 24.8473 16.2786 25.348 16.2587 26.7009L16.2411 27.8332C16.2397 27.9186 16.1772 27.9907 16.0929 28.0041V28.0041C16.01 28.0141 15.8873 28.0141 15.8143 28.0041V28.0041C15.7395 27.9907 15.685 27.9256 15.685 27.8495V26.8933C15.685 24.509 15.4529 22.9637 15.0218 22.4696C14.9588 22.4 14.8725 22.3304 14.8261 22.3138C14.7465 22.2806 14.7465 22.2806 14.9389 22.085C15.3302 21.687 15.8176 21.5378 16.2984 21.6671Z" fill="#9D2135"/>
</svg>
